<?xml version="1.0" encoding="utf-8"?>
<!-- Generator: Adobe Illustrator 16.0.0, SVG Export Plug-In . SVG Version: 6.00 Build 0)  -->
<!DOCTYPE svg PUBLIC "-//W3C//DTD SVG 1.1//EN" "http://www.w3.org/Graphics/SVG/1.1/DTD/svg11.dtd">
<svg version="1.1" id="Ebene_1" xmlns="http://www.w3.org/2000/svg" xmlns:xlink="http://www.w3.org/1999/xlink" x="0px" y="0px"
	 width="841.89px" height="595.28px" viewBox="0 0 841.89 595.28" enable-background="new 0 0 841.89 595.28" xml:space="preserve">
<path d="M536.484,140.442c1.372-1.759,3.007-2.638,4.906-2.638c1.46,0,2.704,0.567,3.729,1.702c1.033,1.134,1.547,2.695,1.547,4.682
	c0,2.044-0.382,4.062-1.151,6.067c-0.766,2.004-1.724,3.464-2.866,4.378c-1.156,0.915-2.365,1.372-3.632,1.372
	c-1.441,0-2.699-0.584-3.759-1.767c-1.06-1.178-1.596-2.708-1.596-4.59C533.662,145.92,534.603,142.855,536.484,140.442
	 M530.339,161.069l0.976-4.616c1.882,3.517,4.827,5.275,8.837,5.275c1.688,0,3.297-0.365,4.84-1.095
	c1.539-0.73,3.007-1.846,4.409-3.35c1.394-1.503,2.511-3.456,3.346-5.855c0.831-2.4,1.253-4.876,1.253-7.426
	c0-3.776-0.888-6.66-2.664-8.639c-1.776-1.978-4.142-2.967-7.096-2.967c-1.424,0-2.734,0.224-3.943,0.672
	c-1.2,0.449-2.501,1.2-3.891,2.255l2.717-12.925h-7.597l-8.071,38.669H530.339z M475.394,161.069h7.57l2.69-12.872
	c0.475-2.233,0.818-3.667,1.029-4.3c0.475-1.354,1.037-2.462,1.701-3.323c0.655-0.862,1.429-1.539,2.308-2.031
	c0.88-0.492,1.732-0.739,2.559-0.739c0.88,0,1.574,0.238,2.071,0.712c0.501,0.475,0.751,1.082,0.751,1.82
	c0,0.581-0.202,1.847-0.606,3.799l-3.534,16.934h7.57l2.664-12.714c0.756-3.618,1.671-6.146,2.743-7.566
	c1.478-1.992,3.156-2.985,5.038-2.985c0.933,0,1.631,0.224,2.102,0.673c0.457,0.448,0.694,1.06,0.694,1.833
	c0,0.282-0.22,1.495-0.659,3.64l-3.587,17.119h7.57l3.587-17.119c0.492-2.374,0.738-4.044,0.738-5.012
	c0-1.969-0.624-3.552-1.872-4.748c-1.249-1.196-2.99-1.793-5.223-1.793c-1.952,0-3.834,0.475-5.646,1.424
	c-1.811,0.95-3.2,2.128-4.167,3.535c-0.317-1.547-1.047-2.756-2.189-3.64c-1.144-0.879-2.771-1.319-4.88-1.319
	c-3.061,0-5.979,1.354-8.758,4.062l0.712-3.403h-7.122L475.394,161.069z M453.843,146.878h9.865l-1.187,5.75
	c-1.302,0.668-2.849,1.244-4.643,1.728s-3.544,0.726-5.249,0.726c-2.85,0-5.012-0.778-6.489-2.334
	c-1.478-1.557-2.216-3.961-2.216-7.214c0-3.306,0.606-6.357,1.82-9.153c1.213-2.796,2.893-4.862,5.038-6.199
	s4.502-2.005,7.069-2.005c2.198,0,4.022,0.554,5.469,1.662c1.46,1.108,2.506,2.752,3.156,4.933l7.412-0.844
	c-0.879-3.974-2.673-6.999-5.367-9.074c-2.699-2.071-6.282-3.113-10.749-3.113s-8.354,1.143-11.659,3.429
	c-3.307,2.286-5.855,5.504-7.649,9.654c-1.495,3.447-2.242,7.052-2.242,10.815c0,5.609,1.741,9.892,5.223,12.846
	c2.55,2.163,6.217,3.245,11,3.245c3.077,0,6.098-0.457,9.061-1.372c2.958-0.915,5.465-2.031,7.504-3.35l3.482-16.592h-17.304
	L453.843,146.878z M385.234,155.398c1,1.987,2.72,3.539,5.155,4.656s5.316,1.675,8.641,1.675c4.82,0,8.574-1.209,11.276-3.627
	c2.701-2.418,4.051-5.333,4.051-8.744c0-2.761-0.909-5.021-2.719-6.779c-1.212-1.196-4.042-2.752-8.496-4.669
	c-2.952-1.284-4.86-2.294-5.722-3.033c-0.863-0.721-1.291-1.635-1.291-2.743c0-1.178,0.469-2.154,1.41-2.928
	c0.94-0.773,2.51-1.161,4.708-1.161c2.233,0,3.921,0.493,5.064,1.478c1.144,0.984,1.81,2.4,2.003,4.247l7.625-0.343
	c-0.246-3.535-1.615-6.366-4.1-8.494c-2.49-2.128-6.001-3.192-10.54-3.192c-4.464,0-7.878,1.073-10.237,3.218
	c-2.354,2.15-3.531,4.845-3.531,8.098c0,1.864,0.395,3.491,1.187,4.88c0.794,1.39,1.877,2.519,3.26,3.39
	c1.378,0.871,3.565,1.957,6.567,3.258c2.994,1.301,4.832,2.242,5.498,2.822c0.949,0.792,1.427,1.759,1.427,2.902
	c0,1.319-0.581,2.444-1.743,3.376c-1.16,0.932-3.042,1.398-5.645,1.398c-3.129,0-5.275-0.686-6.438-2.058
	c-0.719-0.844-1.134-2.466-1.237-4.88l-7.57,0.396C383.769,151.125,384.231,153.411,385.234,155.398 M376.794,161.069l1.369-6.462
	h-22.5l2.431-10.499h20.019l1.348-6.462h-20.025l1.847-8.784h20.708l1.346-6.462h-28.672l-8.072,38.669H376.794z M313.17,155.398
	c1.004,1.987,2.719,3.539,5.159,4.656c2.431,1.117,5.313,1.675,8.634,1.675c4.823,0,8.582-1.209,11.276-3.627
	c2.702-2.418,4.053-5.333,4.053-8.744c0-2.761-0.906-5.021-2.719-6.779c-1.211-1.196-4.044-2.752-8.491-4.669
	c-2.957-1.284-4.867-2.294-5.726-3.033c-0.859-0.721-1.292-1.635-1.292-2.743c0-1.178,0.468-2.154,1.409-2.928
	c0.941-0.773,2.513-1.161,4.708-1.161c2.233,0,3.922,0.493,5.064,1.478c1.146,0.984,1.816,2.4,2.009,4.247l7.621-0.343
	c-0.249-3.535-1.611-6.366-4.102-8.494c-2.488-2.128-6-3.192-10.538-3.192c-4.467,0-7.878,1.073-10.232,3.218
	c-2.359,2.15-3.539,4.845-3.539,8.098c0,1.864,0.396,3.491,1.189,4.88c0.792,1.39,1.877,2.519,3.26,3.39
	c1.376,0.871,3.57,1.957,6.568,3.258c2.999,1.301,4.83,2.242,5.496,2.822c0.949,0.792,1.426,1.759,1.426,2.902
	c0,1.319-0.58,2.444-1.741,3.376c-1.161,0.932-3.044,1.398-5.645,1.398c-3.13,0-5.278-0.686-6.438-2.058
	c-0.721-0.844-1.13-2.466-1.237-4.88l-7.573,0.396C311.702,151.125,312.166,153.411,313.17,155.398 M284.313,146.087l9.338-15.563
	l2.242,15.563H284.313z M298.161,161.069h7.544l-6.278-38.669h-8.839l-21.865,38.669h8.175l4.646-8.546h15.323L298.161,161.069z
	 M256.709,153.077c-1.715,1.336-3.601,2.005-5.658,2.005c-2.216,0-4.066-0.844-5.55-2.533c-1.486-1.688-2.229-4.08-2.229-7.174
	c0-2.832,0.571-5.667,1.714-8.507c1.139-2.84,2.665-4.929,4.575-6.265c1.908-1.336,3.961-2,6.157-2c2.009,0,3.612,0.501,4.818,1.512
	c1.203,1.011,2.016,2.642,2.44,4.893l7.621-0.739c-0.459-3.869-1.976-6.924-4.565-9.166c-2.583-2.242-5.968-3.363-10.156-3.363
	c-3.728,0-7.17,0.967-10.335,2.902c-3.17,1.934-5.641,4.726-7.428,8.375c-1.783,3.653-2.679,7.672-2.679,12.068
	c0,5.417,1.332,9.549,3.998,12.402c2.665,2.845,6.362,4.269,11.092,4.269c4.205,0,7.87-1.147,10.998-3.442
	c3.135-2.295,5.48-5.614,7.045-9.958l-8.017-1.213C259.703,149.762,258.423,151.741,256.709,153.077"/>
<polygon points="602.441,110.658 597.114,126.803 580.551,124.949 585.849,108.801 577.056,107.816 563.295,149.637 
	572.116,150.624 578.26,131.938 594.823,133.792 588.679,152.478 597.501,153.466 611.232,111.642 "/>
<path d="M583.291,210.132c0.332-1.735,0.963-3.045,1.895-3.933c0.936-0.887,1.992-1.331,3.17-1.331c1.18,0,2.119,0.391,2.822,1.172
	c0.701,0.782,1.051,1.953,1.051,3.515c0,0.132-0.006,0.325-0.02,0.576H583.291z M597.412,209.894c0-2.874-0.762-5.108-2.283-6.703
	c-1.523-1.596-3.576-2.394-6.156-2.394c-4.053,0-7.17,1.523-9.355,4.568c-1.602,2.251-2.402,4.82-2.402,7.707
	c0,2.953,0.887,5.326,2.66,7.12c1.775,1.794,4.078,2.688,6.912,2.688c2.066,0,3.926-0.51,5.594-1.537
	c1.658-1.025,2.984-2.564,3.98-4.617l-5.105-0.854c-1.061,1.959-2.535,2.939-4.428,2.939c-1.152,0-2.129-0.43-2.928-1.291
	c-0.809-0.861-1.203-1.992-1.203-3.399c0-0.115,0.006-0.288,0.018-0.513h14.301C597.279,212.509,597.412,211.271,597.412,209.894
	 M540.133,222.386h5.701l2.025-9.692c0.357-1.682,0.615-2.76,0.773-3.237c0.359-1.02,0.789-1.854,1.283-2.502
	c0.498-0.649,1.074-1.158,1.736-1.529c0.664-0.371,1.305-0.557,1.928-0.557c0.662,0,1.18,0.179,1.559,0.537
	c0.381,0.358,0.566,0.814,0.566,1.37c0,0.437-0.152,1.391-0.457,2.86l-2.662,12.751h5.701l2.006-9.573
	c0.568-2.728,1.258-4.627,2.064-5.7c1.111-1.496,2.377-2.245,3.795-2.245c0.701,0,1.23,0.169,1.578,0.507
	c0.355,0.337,0.525,0.798,0.525,1.38c0,0.212-0.164,1.125-0.496,2.741l-2.701,12.89h5.699l2.701-12.89
	c0.373-1.788,0.559-3.045,0.559-3.774c0-1.479-0.471-2.674-1.412-3.575c-0.938-0.9-2.25-1.351-3.932-1.351
	c-1.469,0-2.887,0.357-4.25,1.072c-1.363,0.715-2.41,1.603-3.139,2.662c-0.238-1.165-0.789-2.079-1.648-2.741
	c-0.861-0.662-2.084-0.993-3.674-0.993c-2.305,0-4.502,1.02-6.594,3.059l0.535-2.563h-5.361L540.133,222.386z M524.502,210.132
	c0.332-1.735,0.961-3.045,1.9-3.933c0.93-0.887,1.986-1.331,3.164-1.331c1.18,0,2.119,0.391,2.82,1.172
	c0.703,0.782,1.053,1.953,1.053,3.515c0,0.132-0.006,0.325-0.02,0.576H524.502z M538.623,209.894c0-2.874-0.76-5.108-2.283-6.703
	c-1.523-1.596-3.574-2.394-6.158-2.394c-4.051,0-7.17,1.523-9.354,4.568c-1.602,2.251-2.402,4.82-2.402,7.707
	c0,2.953,0.887,5.326,2.66,7.12c1.775,1.794,4.078,2.688,6.912,2.688c2.066,0,3.932-0.51,5.59-1.537
	c1.664-1.025,2.99-2.564,3.984-4.617l-5.105-0.854c-1.059,1.959-2.535,2.939-4.43,2.939c-1.15,0-2.127-0.43-2.928-1.291
	c-0.807-0.861-1.203-1.992-1.203-3.399c0-0.115,0.008-0.288,0.021-0.513h14.299C538.492,212.509,538.623,211.271,538.623,209.894
	 M508.336,205.524l-1.768,8.481c-0.49,2.343-0.736,3.839-0.736,4.488c0,1.377,0.459,2.452,1.371,3.228
	c0.914,0.774,2.377,1.158,4.391,1.158c1.031,0,2.039-0.096,3.018-0.295l0.895-4.23c-1.006,0.093-1.635,0.14-1.889,0.14
	c-0.727,0-1.23-0.123-1.508-0.368c-0.277-0.246-0.418-0.586-0.418-1.023c0-0.225,0.166-1.139,0.498-2.74l1.846-8.838h3.496
	l0.875-4.231h-3.477l1.529-7.309l-6.533,3.933l-0.697,3.376h-2.779l-0.875,4.231H508.336z M484.178,221.204
	c1.658,1.123,4.012,1.675,7.057,1.675c3.061,0,5.43-0.731,7.111-2.202c1.682-1.466,2.523-3.204,2.523-5.203
	c0-1.549-0.664-2.874-1.988-3.972c-0.939-0.782-2.799-1.576-5.58-2.384c-1.801-0.53-2.867-0.9-3.197-1.112
	c-0.529-0.344-0.795-0.781-0.795-1.311c0-0.516,0.258-0.973,0.785-1.37c0.521-0.397,1.381-0.596,2.572-0.596
	s2.209,0.258,3.059,0.775c0.621,0.384,1.072,0.96,1.35,1.728l5.264-0.914c-0.371-1.694-1.252-3.039-2.643-4.032
	c-1.391-0.993-3.441-1.489-6.156-1.489c-3.416,0-5.992,0.841-7.725,2.523c-1.246,1.205-1.869,2.641-1.869,4.306
	c0,1.671,0.643,3.022,1.928,4.056c0.82,0.661,2.953,1.562,6.395,2.7c1.285,0.424,2.072,0.781,2.363,1.073
	c0.279,0.305,0.418,0.652,0.418,1.033c0,0.569-0.271,1.053-0.814,1.454c-0.781,0.579-1.82,0.87-3.119,0.87
	c-1.258,0-2.25-0.242-2.979-0.725s-1.338-1.308-1.826-2.473l-5.521,0.874C481.385,218.513,482.51,220.085,484.178,221.204
	 M464.344,222.386c-1.125,2.648-2.563,3.972-4.311,3.972c-0.648,0-1.316-0.1-2.006-0.298l-0.496,4.25
	c1.508,0.424,2.867,0.636,4.072,0.636c1.217,0,2.256-0.218,3.123-0.655c0.871-0.437,1.613-1.039,2.232-1.807
	c0.609-0.769,1.455-2.113,2.529-4.032l13.027-23.158h-6.037l-5.045,9.354c-1.297,2.396-2.316,4.674-3.059,6.833
	c-0.039-1.085-0.238-2.979-0.596-5.681l-1.43-10.506h-5.68L464.344,222.386z M438.932,221.204c1.66,1.123,4.018,1.675,7.059,1.675
	c3.059,0,5.43-0.731,7.111-2.202c1.682-1.466,2.521-3.204,2.521-5.203c0-1.549-0.66-2.874-1.984-3.972
	c-0.939-0.782-2.801-1.576-5.582-2.384c-1.801-0.53-2.867-0.9-3.197-1.112c-0.529-0.344-0.795-0.781-0.795-1.311
	c0-0.516,0.262-0.973,0.785-1.37c0.52-0.397,1.381-0.596,2.572-0.596s2.211,0.258,3.059,0.775c0.621,0.384,1.072,0.96,1.35,1.728
	l5.264-0.914c-0.371-1.694-1.25-3.039-2.641-4.032c-1.391-0.993-3.443-1.489-6.158-1.489c-3.416,0-5.992,0.841-7.729,2.523
	c-1.244,1.205-1.861,2.641-1.861,4.306c0,1.671,0.641,3.022,1.924,4.056c0.82,0.661,2.953,1.562,6.396,2.7
	c1.283,0.424,2.072,0.781,2.363,1.073c0.277,0.305,0.416,0.652,0.416,1.033c0,0.569-0.271,1.053-0.814,1.454
	c-0.781,0.579-1.82,0.87-3.117,0.87c-1.258,0-2.252-0.242-2.98-0.725c-0.727-0.483-1.34-1.308-1.826-2.473l-5.521,0.874
	C436.141,218.513,437.27,220.085,438.932,221.204 M419.256,222.386l1.334-6.336l3.855-3.416l2.896,9.752h5.703l-4.508-13.426
	l8.48-7.667h-7.412l-7.424,7.13l3.174-15.154h-5.697l-6.097,29.116H419.256z M402.357,222.386h5.703l4.402-21.093h-5.697
	L402.357,222.386z M407.365,198.434h5.696l1.076-5.164h-5.703L407.365,198.434z M377.586,222.386h5.704l1.808-8.66
	c0.526-2.528,1.006-4.204,1.43-5.025c0.582-1.152,1.381-2.079,2.403-2.78c1.019-0.703,1.942-1.053,2.776-1.053
	c0.771,0,1.371,0.209,1.802,0.626s0.646,0.99,0.646,1.718c0,0.345-0.189,1.411-0.557,3.198l-2.499,11.976h5.693l2.486-11.937
	c0.44-2.065,0.655-3.469,0.655-4.21c0-1.642-0.5-2.959-1.5-3.953c-1-0.993-2.363-1.489-4.101-1.489
	c-1.298,0-2.532,0.249-3.704,0.745c-1.172,0.497-2.436,1.328-3.783,2.493l0.555-2.741h-5.401L377.586,222.386z M367.481,216.468
	c-1.063,1.337-2.367,2.006-3.933,2.006c-1.242,0-2.278-0.443-3.095-1.331c-0.828-0.887-1.238-2.085-1.238-3.595
	c0-1.218,0.271-2.552,0.797-4.002c0.529-1.449,1.271-2.555,2.225-3.317c0.95-0.761,2.049-1.146,3.277-1.146
	c1.245,0,2.261,0.411,3.049,1.225c0.788,0.814,1.182,1.896,1.182,3.247C369.745,212.27,368.987,214.574,367.481,216.468
	 M354.63,218.314c0.758,1.457,1.897,2.582,3.44,3.376c1.536,0.795,3.291,1.188,5.279,1.188c3.668,0,6.597-1.241,8.779-3.73
	c2.188-2.49,3.276-5.442,3.276-8.858c0-2.899-0.874-5.207-2.625-6.921c-1.745-1.715-4.174-2.572-7.286-2.572
	c-3.592,0-6.485,1.162-8.689,3.486c-2.204,2.324-3.307,5.439-3.307,9.344C353.499,215.295,353.873,216.858,354.63,218.314
	 M336.517,222.386h5.7l1.391-6.614c0.556-2.688,1.118-4.65,1.688-5.889s1.36-2.227,2.374-2.969s2.009-1.113,2.989-1.113
	c0.583,0,1.132,0.093,1.645,0.279l2.188-4.665c-0.937-0.414-1.821-0.619-2.638-0.619c-2.321,0-4.476,1.529-6.462,4.588l0.854-4.091
	h-5.32L336.517,222.386z M327.48,205.524l-1.764,8.481c-0.493,2.343-0.738,3.839-0.738,4.488c0,1.377,0.459,2.452,1.37,3.228
	c0.917,0.774,2.374,1.158,4.389,1.158c1.033,0,2.043-0.096,3.022-0.295l0.888-4.23c-1,0.093-1.632,0.14-1.881,0.14
	c-0.731,0-1.238-0.123-1.516-0.368c-0.278-0.246-0.417-0.586-0.417-1.023c0-0.225,0.169-1.139,0.5-2.74l1.847-8.838h3.496
	l0.875-4.231h-3.479l1.536-7.309l-6.538,3.933l-0.694,3.376h-2.778l-0.874,4.231H327.48z M306.265,222.386l1.334-6.336l3.856-3.416
	l2.896,9.752h5.704l-4.509-13.426l8.48-7.667h-7.411l-7.424,7.13l3.174-15.154h-5.697l-6.098,29.116H306.265z M284.858,210.132
	c0.333-1.735,0.963-3.045,1.896-3.933c0.934-0.887,1.986-1.331,3.168-1.331c1.182,0,2.119,0.391,2.82,1.172s1.056,1.953,1.056,3.515
	c0,0.132-0.007,0.325-0.023,0.576H284.858z M298.979,209.894c0-2.874-0.765-5.108-2.284-6.703c-1.522-1.596-3.578-2.394-6.153-2.394
	c-4.058,0-7.175,1.523-9.358,4.568c-1.604,2.251-2.403,4.82-2.403,7.707c0,2.953,0.889,5.326,2.662,7.12
	c1.776,1.794,4.076,2.688,6.912,2.688c2.068,0,3.929-0.51,5.591-1.537c1.662-1.025,2.985-2.564,3.979-4.617l-5.098-0.854
	c-1.063,1.959-2.542,2.939-4.433,2.939c-1.151,0-2.128-0.43-2.927-1.291c-0.804-0.861-1.203-1.992-1.203-3.399
	c0-0.115,0.006-0.288,0.02-0.513h14.3C298.847,212.509,298.979,211.271,298.979,209.894 M272.405,222.386l6.078-29.116h-5.682
	l-6.098,29.116H272.405z M262.396,222.386l1.034-4.866h-16.941l1.828-7.905h15.073l1.013-4.866h-15.073l1.391-6.614h15.587
	l1.015-4.865h-21.589l-6.078,29.116H262.396z"/>
<g>
	<g>
		<path d="M643.357,171.201c-2.061,2.38-2.722,10.162-2.722,10.162s1.097-4.951,3.477-8.275
			c2.381-3.324,32.692-36.435,32.692-36.435l-5.669-3.92c0,0,0.566-3.048,3.589-2.902c3.024,0.145,4.348,3.048,3.402,6.097
			s0.945,3.919,0.945,3.919s2.646,0.871,4.724,0c2.079-0.871,6.235-10.452-1.701-14.227c-7.938-3.773-16.816,4.501-16.816,4.501
			s-10.583-4.791-13.04-4.501l20.22,11.759C672.458,137.379,645.418,168.822,643.357,171.201z M660.554,175.266
			c0,0-4.157,5.807-3.97,7.984c0.379-3.338,32.504-36.726,33.825-39.918c1.323-3.193-2.646-5.226-2.646-5.226s0.946,2.322,0,5.081
			C686.818,145.944,660.554,175.266,660.554,175.266z M706.283,144.637c-0.757-0.871-16.631-7.403-16.631-7.403
			s13.699,7.208,14.741,7.839c1.041,0.632-0.821,3.768-1.702,3.629c-2.571-0.803-8.521-3.824-10.379-4.781
			c1.652,0.875,6.488,3.577,9.481,6.758c-0.162,1.009-1.421,3.167-2.503,3.394c-2.079,0.436-11.527-4.717-11.527-4.717
			s9.448,5.878,9.448,7.041c0,1.161-1.7,2.903-3.022,2.758c-1.324-0.145-10.582-4.791-10.582-4.791l9.826,7.113
			c1.699-0.145,5.291-3.194,8.314-7.693C704.771,149.283,707.038,145.508,706.283,144.637z M692.313,143.921
			c-0.365-0.193-0.58-0.3-0.58-0.3S691.955,143.737,692.313,143.921z M639.011,168.298c1.625-0.381,3.591,0.581,3.591,0.581
			s-0.945-3.629-5.103-2.613c-5.669,1.161-0.069,28.165,1.134,30.628c4.725,3.194,30.424,6.097,39.306,0.872
			c-5.103,1.016-28.346,3.919-35.525-3.194C637.499,187.024,635.559,169.108,639.011,168.298z M660.364,180.057
			c3.212,3.049,4.119,4.24,5.479,5.806c-2.646,4.936-12.66,4.5-12.282,0.726c2.268-6.678-0.753-8.126-2.457-8.419
			c-2.646-0.145-13.276,2.548-3.779,14.372c12.661,10.742,23.622-2.178,23.622-2.178l7.936,5.226
			C678.883,195.589,672.269,185.282,660.364,180.057z M679.072,181.363c-1.891-1.017-11.717,0-11.717,0s10.379,0.537,11.527,1.886
			c1.147,1.352,3.023,2.468,2.835,3.339c-0.189,0.871-8.089,0.898-8.089,0.898s9.447,0.285,9.979,0.989
			c0.529,0.704,3.052,2.612,2.079,2.758c-0.975,0.146-6.804,1.017-6.804,1.017s9.448,1.451,9.639,0
			C688.71,190.799,680.962,182.379,679.072,181.363z M680.583,196.809c0,0,4.353,0.776,3.024,1.538
			c-12.66,7.258-44.274,2.605-50.266-0.871c-1.243-0.721,4.157-0.667,4.157-0.667s-5.48-2.091-6.991,0.813
			c0,1.306,4.496,2.145,4.496,2.145l1.36,19.628l1.702-18.757c0,0,10.96,2.936,23.102,3.227c16.393-0.437,26.029-4.065,25.586-5.517
			C686.313,196.895,680.583,196.809,680.583,196.809z M648.081,222.879c0,0,29.479,1.162,33.637-3.485
			c0.997-1.629-0.756-16.983-0.756-16.983s-0.567,15.242-2.646,17.419c-1.511,2.032-30.036,4.743-46.107-0.436
			c6.991,8.419,48.942,5.808,51.399,3.485C661.168,225.928,648.081,222.879,648.081,222.879z M628.807,118.049
			c-2.268-2.057-14.644-3.024-14.644-3.024s2.172,2.323,1.228,3.919c-0.655,1.107-2.399,1.237-3.408,1.213
			c-0.269-0.041-0.524-0.066-0.75-0.051c0,0,7.37,6.532,10.394,6.968C625.784,127.219,631.074,120.106,628.807,118.049z
			 M625.595,122.138c-1.324,1.742-1.891,2.903-3.592,2.497c-1.157-0.277-4.459-2.358-7.315-3.602
			c1.177,0.123,2.315-0.031,2.781-0.926c1.137-1.833-0.289-3.295-1.606-4.172c2.934,1.001,8.556,1.817,9.732,2.72
			C627.106,119.815,626.916,120.396,625.595,122.138z M639.341,136.364c1.794,0.644,4.205-1.307,4.205-1.307l21.165,7.548
			l-19.087-9.436c0,0,6.614-7.55,4.726-10.017c-5.131-3.2-12.578-2.47-14.727-2.174c-2.306-0.767-4.927-1.309-4.927-1.309
			s7.483,4.064,4.876,6.532c-2.608,2.468-9.222,0.873-9.222,0.873s2.475,1.73,4.657,2.78
			C631.257,131.301,632.738,133.864,639.341,136.364z M639.011,127.075c1.701-2.18,0.567-2.615,0-4.212
			c-0.015-0.041-0.053-0.082-0.077-0.123c2.161-0.103,6.233,0.055,8.392,2.416c0,1.42-3.779,8.449-7.416,8.595
			c-2.371,0.095-4.525-1.904-5.742-3.31C635.663,129.765,637.401,129.136,639.011,127.075z"/>
	</g>
</g>
<rect x="199.5" y="105.967" fill="#010202" width="366.148" height="3.785"/>
<rect x="199.5" y="173.722" fill="#010202" width="424.542" height="3.756"/>
<rect x="199.5" y="140.44" fill="#010202" width="30.5" height="3.865"/>
<rect x="199.5" y="157.311" fill="#010202" width="30.5" height="3.416"/>
<rect x="565.648" y="156.931" fill="#010202" width="58.394" height="4.554"/>
<rect x="199.5" y="123.974" fill="#010202" width="30.5" height="3.297"/>
</svg>
