<svg id="Calque_1" data-name="Calque 1" xmlns="http://www.w3.org/2000/svg" viewBox="0 0 1250 235.35"><defs><style>.cls-1{fill:#575756;}.cls-2{fill:#003684;}.cls-3{fill:#fa0057;}</style></defs><title>SAS_Logo</title><path class="cls-1" d="M697.94,209.6c0-9.24,6.16-15.57,14.39-15.57a12.57,12.57,0,0,1,10.87,5.43v-4.54h4.2v25.71c0,1.23,0,2.47.05,3.7h-4.08v-4.54a13,13,0,0,1-10.93,5.43C704,225.22,697.94,219,697.94,209.6Zm25.48.05c0-7-3.92-11.87-10.47-11.87-6.27,0-10.53,4.87-10.53,11.87s4.26,11.88,10.53,11.88C719.45,221.53,723.42,216.71,723.42,209.65Z"/><path class="cls-1" d="M751.71,184.28h24v4h-19.6v13.61h18.37v4H756.14v18.48h-4.43Z"/><path class="cls-1" d="M779.66,209.6c0-9.24,6.16-15.57,14.4-15.57a12.56,12.56,0,0,1,10.86,5.43v-4.54h4.2v25.71c0,1.23,0,2.47.06,3.7h-4.09v-4.54a13,13,0,0,1-10.92,5.43C785.77,225.22,779.66,219,779.66,209.6Zm25.49.05c0-7-3.92-11.87-10.48-11.87-6.27,0-10.53,4.87-10.53,11.87s4.26,11.88,10.53,11.88C801.17,221.53,805.15,216.71,805.15,209.65Z"/><path class="cls-1" d="M818,213.35V194.92h4.31v17.31c0,6.11,2.58,9.19,7.56,9.19a8.23,8.23,0,0,0,8.4-8.52v-18h4.31v24.76c0,1.57,0,3.08.06,4.65h-4.2v-4.2h-.06a10.77,10.77,0,0,1-9.57,5C822.12,225.17,818,221,818,213.35Z"/><path class="cls-1" d="M851.75,199.57c0-1.51,0-3.13,0-4.65h4.08v4.15h.06a7.4,7.4,0,0,1,7.22-4.82,8.86,8.86,0,0,1,1.4.11v4a8.63,8.63,0,0,0-1.79-.17c-5,0-6.61,4.14-6.61,9.91v16.19h-4.31Z"/><path class="cls-1" d="M866.82,209.54c0-9.13,6-15.51,14.39-15.51s13.84,6,13.84,14.9a12.73,12.73,0,0,1-.06,1.45H871.13c.34,7,4.82,11.09,10.81,11.09a13.9,13.9,0,0,0,10.7-4.93l2.69,2.8a17.87,17.87,0,0,1-13.56,5.88C873,225.22,866.82,219.29,866.82,209.54ZM890.57,207c-.34-5.72-3.7-9.25-9.41-9.25s-9.52,3.59-10,9.25Z"/><path class="cls-1" d="M900.15,209.71c0-9.13,6.21-15.68,15.29-15.68,5.65,0,9.57,2.29,12.09,5.77l-3.41,2.63a10.17,10.17,0,0,0-8.74-4.59c-6.44,0-10.7,5-10.7,11.81s4.26,11.77,10.76,11.77a10.58,10.58,0,0,0,8.9-4.54l3.14,2.69a15.16,15.16,0,0,1-12.27,5.65C906.36,225.22,900.15,218.67,900.15,209.71Z"/><path class="cls-1" d="M932.8,186.75c0-1.68,1.23-1.22,3-1.22s2.91-.46,2.91,1.22a2.87,2.87,0,0,1-2.91,3A2.9,2.9,0,0,1,932.8,186.75Zm.9,8.17H938v29.41H933.7Z"/><path class="cls-1" d="M945.13,209.6c0-9.24,6.16-15.57,14.39-15.57a12.57,12.57,0,0,1,10.87,5.43v-4.54h4.2v25.71c0,1.23,0,2.47,0,3.7h-4.09v-4.54a13,13,0,0,1-10.92,5.43C951.23,225.22,945.13,219,945.13,209.6Zm25.48.05c0-7-3.92-11.87-10.47-11.87-6.28,0-10.53,4.87-10.53,11.87s4.25,11.88,10.53,11.88C966.63,221.53,970.61,216.71,970.61,209.65Z"/><path class="cls-1" d="M996,209.71c0-9.13,6.22-15.68,15.29-15.68,5.66,0,9.58,2.29,12.1,5.77l-3.42,2.63a10.16,10.16,0,0,0-8.73-4.59c-6.44,0-10.7,5-10.7,11.81s4.26,11.77,10.75,11.77a10.6,10.6,0,0,0,8.91-4.54l3.13,2.69a15.14,15.14,0,0,1-12.26,5.65C1002.26,225.22,996,218.67,996,209.71Z"/><path class="cls-1" d="M1027.19,209.65c0-9.24,6.32-15.62,15.29-15.62s15.29,6.38,15.29,15.62-6.28,15.57-15.29,15.57S1027.19,218.78,1027.19,209.65Zm26,0c0-6.77-4.2-11.87-10.75-11.87s-10.81,5.1-10.81,11.87,4.2,11.82,10.81,11.82S1053.23,216.49,1053.23,209.65Z"/><path class="cls-1" d="M1064.88,199.63c0-1.63,0-3.14-.05-4.71h4.2v4.26h0a10.81,10.81,0,0,1,9.52-5.1c4.54,0,8,1.91,9.64,5.6h.11a11.86,11.86,0,0,1,10.53-5.6c6.66,0,10.86,4.15,10.86,11.88v18.37h-4.31V207c0-6.1-2.63-9.18-7.61-9.18-5.44,0-8.35,4.25-8.35,8.57v17.92h-4.31V207c0-6.1-2.64-9.18-7.62-9.18-5.43,0-8.35,4.25-8.35,8.57v17.92h-4.31Z"/><path class="cls-1" d="M1118.54,199.63c0-1.63,0-3.14,0-4.71h4.31v4.65h.06c1.79-3,5.71-5.49,10.75-5.49,8.46,0,14.45,6.33,14.45,15.57,0,9.47-6.38,15.63-14.56,15.63a12.6,12.6,0,0,1-10.76-5.38c.06,1.35.12,3.81.12,7.4v7.11h-4.32Zm25,10c0-6.95-4.25-11.76-10.53-11.76-6.49,0-10.47,4.81-10.47,11.76,0,7.17,3.92,11.93,10.47,11.93C1139.27,221.53,1143.52,216.77,1143.52,209.6Z"/><path class="cls-1" d="M1153.1,209.6c0-9.24,6.16-15.57,14.4-15.57a12.56,12.56,0,0,1,10.86,5.43v-4.54h4.2v25.71c0,1.23,0,2.47.06,3.7h-4.09v-4.54a13,13,0,0,1-10.92,5.43C1159.21,225.22,1153.1,219,1153.1,209.6Zm25.49.05c0-7-3.92-11.87-10.48-11.87-6.27,0-10.53,4.87-10.53,11.87s4.26,11.88,10.53,11.88C1174.61,221.53,1178.59,216.71,1178.59,209.65Z"/><path class="cls-1" d="M1191.75,199.63c0-1.63,0-3.14,0-4.71h4.2v4.26h0a11.16,11.16,0,0,1,9.75-5.1c6.66,0,10.92,4.26,10.92,12v18.26h-4.31V207c0-6.1-2.69-9.18-7.67-9.18a8.38,8.38,0,0,0-8.57,8.57v17.92h-4.32Z"/><path class="cls-1" d="M1232.59,224.55l-11.2-29.63H1226l5.55,15.18c1.23,3.48,2.46,7.17,3.3,9.69h.06c.73-2.41,2-6,3.47-10l5.43-14.9h4.6l-15.57,39.49h-4.37Z"/><path class="cls-2" d="M2.1,130.42H58.29c18.87,0,30.4-4,30.4-20.13C88.69,95.4,77.16,91.84,60,87.22l-19.08-5C18,76.11,0,70.24,0,39.42c0-12.79,3.77-21.6,10.27-27.89C19.08,3.35,29.56,0,51.37,0H99.8l-1,19.92H48.43C31,19.92,22,23.9,22,37.74c0,14,8.17,18.45,26.83,23.27l17.83,4.83c23.48,6.08,44,12.58,44,41.3,0,17.62-5.87,27.47-14.89,33.76-10.06,6.92-23.06,9-42.35,9H2.1Z"/><path class="cls-2" d="M176.12,0H201.7L261,149.92H238.61l-18-45.29H155l-17.62,45.29H115.74Zm37.53,86.38-10.9-29.14c-3.35-9-12.37-35.22-14.26-40.89h-.83c-2.73,6.5-11.33,31.87-14.68,40.89L161.87,86.38Z"/><path class="cls-2" d="M271.73,130.42h56.19c18.87,0,30.4-4,30.4-20.13,0-14.89-11.53-18.45-28.72-23.07l-19.08-5c-22.85-6.08-40.89-12-40.89-42.77,0-12.79,3.78-21.6,10.28-27.89C288.71,3.35,299.2,0,321,0h48.44l-1.05,19.92H318.07c-17.41,0-26.42,4-26.42,17.82,0,14,8.18,18.45,26.84,23.27l17.82,4.83c23.48,6.08,44,12.58,44,41.3,0,17.62-5.87,27.47-14.89,33.76-10.06,6.92-23.06,9-42.35,9H271.73Z"/><path class="cls-2" d="M450.39,98.59h10.32v54.19H450.39Z"/><path class="cls-2" d="M477.12,107.57c0-3.09,0-6-.1-9h10.11v6.71h.11c2.47-4.54,9.29-8.36,16.92-8.36,12.49,0,20.13,8,20.13,22v33.86H514V121.71c0-9.39-3.31-15.79-12.8-15.79-9.29,0-13.73,7-13.73,13.83v33H477.12Z"/><path class="cls-2" d="M542,107.57h-6.91v-9H542V83.83h10.32V98.59h15.38v9H552.36v45.21H542Z"/><path class="cls-2" d="M571.87,125.74c0-16.93,11.25-28.8,26.93-28.8,16.31,0,25.91,11.87,25.91,28,0,1,0,2.17-.1,3.2H582.19c.82,10.53,7.94,17.54,17.65,17.54,8.77,0,14.45-4.33,18.47-8.87l6.71,6.29c-5.47,6.92-14.55,11.56-25.7,11.56C583.22,154.63,571.87,143.49,571.87,125.74Zm42.21-5.47c-.62-9.09-6-14.56-15.48-14.56s-15.48,5.58-16.41,14.56Z"/><path class="cls-2" d="M637.4,107.57c0-3.09,0-6-.1-9h10v6.92h.1c1.76-5.06,6.71-8.26,12.91-8.26a16.15,16.15,0,0,1,2.78.21V107a21.4,21.4,0,0,0-3.71-.31c-9.81,0-11.67,7.33-11.67,17.55v28.59H637.4Z"/><path class="cls-2" d="M671.36,84.66a6.76,6.76,0,1,1,6.81,6.6A6.46,6.46,0,0,1,671.36,84.66Zm1.75,13.93h10.32v54.19H673.11Z"/><path class="cls-2" d="M696.13,125.94c0-17.44,11.76-29,28.48-29s28.49,11.56,28.49,29c0,17-11.46,28.69-28.49,28.69S696.13,143,696.13,125.94Zm46.23-.1c0-11.35-7.12-19.92-17.75-19.92s-17.75,8.57-17.75,19.92c0,11.56,7,19.81,17.75,19.81S742.36,137.4,742.36,125.84Z"/><path class="cls-2" d="M765.79,107.57c0-3.09,0-6-.1-9h10v6.92h.1c1.76-5.06,6.71-8.26,12.9-8.26a16.19,16.19,0,0,1,2.79.21V107a21.4,21.4,0,0,0-3.71-.31c-9.81,0-11.67,7.33-11.67,17.55v28.59H765.79Z"/><path class="cls-2" d="M824.72,107.57c0-3.09,0-6-.1-9h10.11v6.71h.11c2.47-4.54,9-8.36,16.61-8.36,7.95,0,13.83,3.3,17.14,9.29h.2c2.48-3.92,8.47-9.29,19-9.29,12.49,0,19.92,8,19.92,22v33.86H897.38V121.71c0-9.39-3.1-15.79-12.59-15.79-9.29,0-13.42,7-13.42,13.83v33H861.05V121.71c0-9.39-3.09-15.79-12.59-15.79-9.29,0-13.42,7-13.42,13.83v33H824.72Z"/><path class="cls-2" d="M919.78,125.94c0-17.44,11.76-29,28.48-29s28.49,11.56,28.49,29c0,17-11.46,28.69-28.49,28.69S919.78,143,919.78,125.94Zm46.24-.1c0-11.35-7.13-19.92-17.76-19.92s-17.75,8.57-17.75,19.92c0,11.56,7,19.81,17.75,19.81S966,137.4,966,125.84Z"/><path class="cls-2" d="M985.73,125.63c0-16.72,11-28.69,26.42-28.69,8.67,0,14.65,3.41,18.27,8.36-.11-2.58-.11-4.54-.11-6.71V79h10.32v68.33c0,1.85,0,3.71.11,5.47H1031v-6.61c-3.61,4.75-10.83,8.46-18.78,8.46C996.05,154.63,985.73,142.35,985.73,125.63Zm45.41.11c0-11.56-6.4-19.82-17.34-19.82s-17.34,8.36-17.34,19.82,6.5,19.91,17.34,19.91S1031.14,137.09,1031.14,125.74Z"/><path class="cls-2" d="M1056.42,132.44V98.59h10.33v31c0,9.4,3.09,15.8,12.59,15.8,9.29,0,13.41-6.92,13.41-13.73v-33h10.32V143.8c0,3.09,0,6,.11,9h-10.12v-6.71h-.1c-2.48,4.54-9,8.36-16.62,8.36C1063.86,154.43,1056.42,146.48,1056.42,132.44Z"/><path class="cls-2" d="M1119.48,79h10.32v73.8h-10.32Z"/><path class="cls-2" d="M1142.5,125.74c0-16.93,11.25-28.8,26.94-28.8,16.3,0,25.9,11.87,25.9,28,0,1,0,2.17-.1,3.2h-42.42c.83,10.53,8,17.54,17.65,17.54,8.77,0,14.45-4.33,18.47-8.87l6.71,6.29c-5.47,6.92-14.55,11.56-25.7,11.56C1153.85,154.63,1142.5,143.49,1142.5,125.74Zm42.21-5.47c-.62-9.09-6-14.56-15.48-14.56s-15.48,5.58-16.41,14.56Z"/><path class="cls-2" d="M1205.46,143.8h22c7,0,11.15-.42,11.15-5.68,0-4.54-3.31-5.26-10.12-6.91l-7-1.76c-10-2.48-16.92-4.54-16.92-16.31,0-4.64,1.55-7.94,4-10.11,3.51-3.1,8.36-4.44,15.69-4.44h20l-.72,9h-19.71c-6.4,0-9.5.62-9.5,5.27s2.27,5.26,9.6,7l7.22,1.76c9.19,2.27,17.34,4.44,17.34,15.68,0,6.2-2.27,9.81-5.78,12.08-4.12,2.58-9.39,3.41-16.3,3.41h-21Z"/><path class="cls-2" d="M486.43,61.88h97.5c4.51,0,9,0,13.53,0h.19a15.79,15.79,0,0,0,8.42-2,2.9,2.9,0,0,0,1.44-1.7c.22-.94-.41-1.47-1.17-2-.58-.39-1.18-.77-1.78-1.14-1.75-1.1-3.53-2.15-5.32-3.18q-4.32-2.46-8.74-4.75-6-3.09-12.09-5.92-7.62-3.51-15.38-6.66-9.82-4-19.83-7.49-10.76-3.75-21.71-6.9-12.29-3.55-24.77-6.39Q482.23,10.45,467.56,8q-15.31-2.55-30.79-4.14-3.94-.4-7.91-.75a21.09,21.09,0,0,0-6.29.3c-1.41.3-3.61.9-4.7,2-.7.68-1.4,1.65-.57,2.58a6.13,6.13,0,0,0,3.93,1.57q15.64,1.38,31.19,3.71,7.36,1.1,14.68,2.44c2.33.42,4.66.87,7,1.33l1.65.33c.68.13-1.2-.25-1-.21l.41.08.95.2,3.38.71q12.76,2.73,25.35,6.18,11.31,3.11,22.45,6.81,9.71,3.25,19.24,7l1,.41.27.11-.91-.36.7.28,2.13.86c1.37.55,2.74,1.12,4.1,1.7,2.56,1.07,5.1,2.18,7.62,3.31q6.46,2.91,12.8,6.1,4.82,2.43,9.53,5.06c2.05,1.15,4.09,2.33,6.09,3.56.89.55,1.76,1.12,2.64,1.68a.41.41,0,0,1,.11.07l8.7-5.69h-97.5c-4.51,0-9,0-13.53,0h-.19a19.12,19.12,0,0,0-6.23,1c-.94.33-3.1,1.18-3.54,2.31-1.13,3,4.44,3.43,6.08,3.43Z"/><circle class="cls-3" cx="455.66" cy="61.4" r="19.77"/></svg>